<svg width="106" height="32" viewBox="0 0 106 32" fill="none" xmlns="http://www.w3.org/2000/svg">
<g id="logo-gradient-blue-trello">
<g clip-path="url(#clip0)">
<path d="M0 0H106V32H0V0Z" fill="white" fill-opacity="0.01"/>
<g id="Trello">
<path d="M47.0189 5.63771V8.3436H40.6221V26.2167H37.767V8.30799H31.3701V5.63771H47.0189Z" fill="#253858"/>
<path d="M51.1027 26.2167H48.4283V10.5511H51.1027V13.2926C52.0424 11.4412 53.6325 10.1238 56.7406 10.3018V12.9365C53.235 12.5805 51.1027 13.613 51.1027 16.9597V26.2167Z" fill="#253858"/>
<path d="M66.354 26.5372C60.3908 26.5372 57.7887 23.1548 57.7887 18.3483C57.7887 13.613 60.4631 10.2306 65.3059 10.2306C70.221 10.2306 72.1726 13.5774 72.1726 18.3483V19.5588H60.5715C60.9691 22.2291 62.7038 23.9381 66.4624 23.9381C68.3056 23.9381 69.8596 23.582 71.3053 23.0836V25.5759C70.0042 26.2879 67.9803 26.5372 66.354 26.5372ZM60.5354 17.2446H69.426C69.2814 14.3251 67.9442 12.6873 65.1975 12.6873C62.3063 12.6873 60.8245 14.5387 60.5354 17.2446Z" fill="#253858"/>
<path d="M79.69 26.3235C77.0879 26.3235 75.4254 25.113 75.4254 22.2291V4H78.1721V21.8731C78.1721 23.2972 79.1117 23.7957 80.3044 23.7957C80.5935 23.7957 80.7742 23.7957 81.0995 23.7601V26.1811C80.8826 26.2523 80.4128 26.3235 79.69 26.3235Z" fill="#253858"/>
<path d="M88.0023 26.3235C85.4002 26.3235 83.7377 25.113 83.7377 22.2291V4H86.4844V21.8731C86.4844 23.2972 87.424 23.7957 88.6167 23.7957C88.9058 23.7957 89.0865 23.7957 89.4118 23.7601V26.1811C89.1588 26.2523 88.689 26.3235 88.0023 26.3235Z" fill="#253858"/>
<path d="M90.9297 18.3483C90.9297 13.6486 93.7125 10.2306 98.4831 10.2306C103.217 10.2306 106 13.6486 106 18.3483C106 23.048 103.217 26.5372 98.4831 26.5372C93.7125 26.5372 90.9297 23.048 90.9297 18.3483ZM93.6041 18.3483C93.6041 21.339 95.0859 24.0093 98.5192 24.0093C101.88 24.0093 103.362 21.3034 103.362 18.3483C103.362 15.3932 101.916 12.7229 98.5192 12.7229C95.0859 12.7585 93.6041 15.3576 93.6041 18.3483Z" fill="#253858"/>
</g>
<path id="Icon" d="M19.9495 4.53406H2.8551C1.26492 4.53406 0 5.78019 0 7.34675V24.1873C0 25.7539 1.26492 27 2.8551 27H19.9495C21.5397 27 22.8046 25.7539 22.8046 24.1873V7.34675C22.7685 5.78019 21.5036 4.53406 19.9495 4.53406ZM9.90249 21.5526C9.90249 22.3003 9.2881 22.9056 8.52915 22.9056H4.33686C3.57791 22.9056 2.96352 22.3003 2.96352 21.5526V8.8065C2.96352 8.05883 3.57791 7.45356 4.33686 7.45356H8.56529C9.32424 7.45356 9.93863 8.05883 9.93863 8.8065V21.5526H9.90249ZM19.805 15.9272C19.805 16.6749 19.1906 17.2802 18.4316 17.2802H14.2393C13.4804 17.2802 12.866 16.6749 12.866 15.9272V8.8065C12.866 8.05883 13.4804 7.45356 14.2393 7.45356H18.4678C19.2267 7.45356 19.8411 8.05883 19.8411 8.8065L19.805 15.9272Z" fill="url(#paint0_linear)"/>
</g>
</g>
<defs>
<linearGradient id="paint0_linear" x1="11.3924" y1="14.3226" x2="11.3924" y2="35.5486" gradientUnits="userSpaceOnUse">
<stop stop-color="#2684FF"/>
<stop offset="1" stop-color="#0052CC"/>
</linearGradient>
<clipPath id="clip0">
<path d="M0 0H106V32H0V0Z" fill="white"/>
</clipPath>
</defs>
</svg>
